<svg xmlns="http://www.w3.org/2000/svg" viewBox="0 0 332 126" fill="none"><title>Hinge Logo</title><g fill="currentColor"><path d="M87.4818 48.0905C85.8106 48.9973 84.0775 49.7852 82.2954 50.4484C78.4487 51.8325 74.4714 52.5497 70.4023 52.8179C69.5216 52.8738 68.6395 52.9341 67.756 52.9499C67.3142 52.9499 67.1493 53.1248 67.1823 53.5494C67.2009 53.7631 67.1823 53.9797 67.1823 54.1934V91.4506C67.1823 92.5062 67.1823 92.5077 66.131 92.5077C61.6388 92.5077 57.1465 92.4919 52.6486 92.5249C51.9157 92.5249 51.7321 92.3126 51.7335 91.5954C51.7536 79.0817 51.7584 66.5675 51.7479 54.0528C51.7479 53.0359 51.7479 53.0287 50.7223 53.033C43.9597 53.0675 37.197 52.9298 30.4371 53.1148C28.1409 53.1676 25.8693 53.6004 23.7146 54.3956C19.4634 55.992 17.157 59.1933 16.1444 63.4948C15.6123 65.7653 15.4746 68.0759 15.4645 70.3909C15.4359 77.4361 15.4545 84.4813 15.4531 91.5266C15.4531 92.5048 15.4531 92.5077 14.4735 92.5077C9.95686 92.5077 5.43741 92.4933 0.925119 92.5249C0.192195 92.5249 0 92.3069 0 91.5897C0.0172115 61.8319 0.0224707 32.0742 0.0157773 2.31643C0.0157773 1.36693 0.015777 1.35546 0.969582 1.35546C5.48665 1.35546 10.0028 1.35546 14.5179 1.35546C15.4516 1.35546 15.4531 1.36406 15.4531 2.32504C15.4531 15.6286 15.4531 28.9312 15.4531 42.2328V43.0647C15.7299 43.2196 15.8475 43.0116 15.9881 42.9112C20.0227 40.0426 24.5451 38.4334 29.4073 37.6832C32.1325 37.2644 34.8662 37.1353 37.6143 37.1382C41.988 37.1449 46.3611 37.1449 50.7338 37.1382C51.7565 37.1382 51.7579 37.1382 51.7579 36.1342V2.4656C51.7579 1.35689 51.7579 1.35402 52.8322 1.35402C57.2995 1.35402 61.7678 1.35402 66.2371 1.35402C67.1837 1.35402 67.1866 1.35402 67.1866 2.30926V36.127C67.1866 37.1382 67.1866 37.1468 68.1992 37.131C71.0879 37.1038 73.9737 37.1712 76.858 36.8556C82.8634 36.2002 87.2122 33.2197 89.8542 27.7981C90.2027 27.0809 90.5111 27.0221 91.2067 27.2961C94.8713 28.7375 98.5546 30.1345 102.242 31.5186C102.809 31.7309 103.053 31.9891 103.051 32.6388C103.032 52.2944 103.032 71.9494 103.051 91.604C103.051 92.3441 102.829 92.522 102.12 92.5177C97.6037 92.4876 93.0842 92.5033 88.5719 92.5019C87.6095 92.5019 87.6066 92.5019 87.6066 91.4979C87.6066 77.3596 87.6066 63.2213 87.6066 49.083C87.6052 48.7904 87.6783 48.4763 87.4818 48.0905Z" fill="#ffffff"/><path d="M239.097 87.3385C238.892 87.2854 238.785 87.4389 238.666 87.5379C234.041 91.2054 228.77 93.2263 222.889 93.6752C216.674 94.15 210.688 93.2378 205.055 90.5083C197.043 86.6242 191.997 80.213 189.437 71.7693C187.978 66.9443 187.585 61.9989 187.953 56.9731C188.36 51.3908 189.758 46.1112 192.656 41.2905C197.128 33.8537 203.751 29.4189 212.146 27.5213C215.037 26.8668 217.999 26.581 220.961 26.6708C228.443 26.8945 234.99 29.439 240.468 34.6053C240.604 34.7358 240.748 34.8577 240.945 35.0356C241.285 34.2123 241.29 33.3761 241.436 32.5758C241.677 31.2634 241.866 29.9424 242.056 28.62C242.137 28.0463 242.342 27.7738 243.005 27.7795C246.684 27.8168 250.363 27.811 254.049 27.7795C254.697 27.7795 254.91 27.9588 254.91 28.6229C254.928 50.7841 255.053 72.9425 254.96 95.1052C254.923 104.513 251.374 112.495 244.026 118.583C240.01 121.912 235.332 123.913 230.25 124.949C223.275 126.37 216.293 126.482 209.421 124.429C200.082 121.64 193.251 115.848 189.099 106.984C188.76 106.245 188.489 105.477 188.288 104.689C188.185 104.3 188.288 104.084 188.719 103.972C193.021 102.791 197.32 101.596 201.614 100.386C201.96 100.289 202.139 100.343 202.245 100.713C203.578 105.37 206.772 108.364 211.036 110.313C214.315 111.812 217.806 112.201 221.392 111.965C224.491 111.762 227.505 111.217 230.326 109.877C235.837 107.261 238.906 102.939 239.18 96.8063C239.312 93.8258 239.224 90.8368 239.231 87.852C239.214 87.6899 239.269 87.4834 239.097 87.3385V87.3385ZM239.614 59.6567C239.65 58.5953 239.487 57.0075 239.153 55.4398C237.942 49.7772 234.924 45.4672 229.589 42.993C225.716 41.1973 221.62 40.8975 217.47 41.6534C211.793 42.689 207.514 45.7397 205.067 51.0136C202.541 56.4553 202.426 62.1064 204.368 67.7418C206.104 72.7776 209.566 76.2299 214.602 78.0357C217.668 79.1358 220.842 79.3538 224.068 78.9637C229.246 78.3369 233.456 76.0248 236.419 71.6689C238.755 68.2223 239.616 64.3282 239.616 59.6624L239.614 59.6567Z" fill="#ffffff"/><path d="M281.179 65.7194C281.517 67.3159 282.12 68.8445 282.963 70.2417C285.697 74.8616 289.793 77.5767 295.011 78.5363C300.031 79.4599 304.958 79.0942 309.641 76.9155C312.388 75.639 314.648 73.6883 316.744 71.5355C316.94 71.3347 317.094 71.0779 317.438 70.9704L327.465 81.2557C327.638 81.3288 327.465 81.445 327.34 81.5784C322.281 86.924 316.335 90.7765 309.069 92.3987C304.493 93.4113 299.794 93.7429 295.122 93.3826C289.871 92.9968 284.93 91.5855 280.411 88.8574C273.262 84.5388 268.835 78.1877 266.682 70.1901C265.686 66.4473 265.261 62.5755 265.422 58.7057C265.687 51.5859 267.496 44.9365 271.794 39.1377C276.241 33.128 282.229 29.4002 289.456 27.702C296.807 25.9809 304.126 26.2677 311.257 28.7806C321.637 32.4323 328.096 39.7544 330.817 50.361C332.039 55.1186 332.352 59.9564 331.58 64.8402C331.471 65.5287 331.234 65.7338 330.539 65.7323C314.433 65.7132 298.328 65.7089 282.223 65.7194H281.179ZM281.527 53.1192H315.751C315.872 52.9054 315.778 52.7749 315.732 52.6458C314.137 48.1522 311.244 44.8117 306.886 42.8123C303.33 41.1801 299.579 40.8531 295.744 41.345C291.41 41.8987 287.712 43.7303 284.843 47.0664C283.322 48.8284 282.192 50.8928 281.527 53.1235V53.1192Z" fill="#ffffff"/><path d="M133.361 34.4346C133.84 34.0044 134.324 33.5554 134.826 33.1266C138.764 29.7531 143.25 27.4367 148.419 26.873C156.097 26.0354 162.897 28.1639 168.452 33.6716C172.716 37.8985 175.022 43.1508 176.151 48.9755C176.691 51.7523 176.818 54.5606 176.818 57.3805C176.818 68.698 176.818 80.0165 176.818 91.3359C176.818 92.5077 176.818 92.5092 175.651 92.5092H162.312C161.21 92.5092 161.207 92.5092 161.207 91.4205C161.207 80.2206 161.207 69.0212 161.207 57.8222C161.207 55.1874 161.038 52.5799 160.279 50.0354C158.75 44.9093 154.806 41.7596 149.476 41.325C147.243 41.1443 145.03 41.1557 142.86 41.6864C138.402 42.7722 135.723 45.6938 134.416 49.9953C133.636 52.5612 133.488 55.1975 133.488 57.8538C133.488 68.9829 133.488 80.1107 133.488 91.2369C133.488 92.8147 133.424 92.502 132.197 92.5049C127.778 92.5178 123.358 92.5049 118.937 92.5049C117.998 92.5049 117.995 92.5049 117.995 91.5496C117.995 70.6309 117.995 49.7127 117.995 28.795C117.995 27.8053 117.995 27.8025 118.973 27.8025H131.373C132.44 27.8025 132.425 27.8025 132.537 28.8438C132.727 30.5979 132.935 32.3492 133.135 34.1019C133.138 34.1728 133.161 34.2416 133.2 34.3004C133.24 34.3593 133.296 34.4057 133.361 34.4346V34.4346Z" fill="#ffffff"/><path d="M86.7403 9.25846C86.7561 4.07636 90.9098 -0.0228528 96.1249 9.58848e-05C101.238 0.0216103 105.346 4.21405 105.326 9.3775C105.309 11.8421 104.314 14.1992 102.56 15.9302C100.806 17.6613 98.4353 18.6244 95.9707 18.6079C93.5061 18.5913 91.149 17.5964 89.418 15.842C87.687 14.0876 86.7238 11.7173 86.7403 9.25272V9.25846Z" fill="#ffffff"/></g></svg>